<?xml version="1.0" encoding="utf-8"?>
<!-- Created with: Axialis IconVectors - www.axialis.com -->
<svg version="1.1" xmlns="http://www.w3.org/2000/svg" xmlns:xlink="http://www.w3.org/1999/xlink" viewBox="0 0 300 48">
  <g>
    <g>
      <g>
        <g>
          <g>
            <g>
              <g>
                <g>
                  <g>
                    <g>
                      <path fill="#2D3747" fill-opacity="1" d="M14.87,11.61L14.87,29.3L11.33,29.3L11.33,27.82C10.41,28.93,9.08 29.49, 7.33 29.49 C6.11,29.49,5.02 29.22, 4.04 28.69 C3.08,28.15,2.31 27.38, 1.75 26.38 C1.19,25.37,.92 24.21, .92 22.89 C.92,21.57,1.19 20.41, 1.75 19.41 C2.31,18.41,3.08 17.64, 4.04 17.1 C5.02,16.56,6.11 16.28, 7.33 16.28 C8.96,16.28,10.24 16.8, 11.17 17.83 L11.17,11.61zM7.97,26.44C8.9,26.44,9.68 26.12, 10.29 25.47 C10.92,24.83,11.23 23.97, 11.23 22.89 C11.23,21.81,10.92 20.95, 10.29 20.32 C9.68,19.67,8.9 19.35, 7.97 19.35 C7.02,19.35,6.23 19.67, 5.61 20.32 C4.99,20.95,4.69 21.81, 4.69 22.89 C4.69,23.97,4.99 24.83, 5.61 25.47 C6.23,26.12,7.02 26.44, 7.97 26.44 zM7.97,26.44"/>
                    </g>
                  </g>
                </g>
              </g>
              <g>
                <g>
                  <g>
                    <path fill="#2D3747" fill-opacity="1" d="M23.48,16.28C25.46,16.28,26.98 16.76, 28.04 17.71 C29.11,18.66,29.65 20.08, 29.65 21.99 L29.65,29.3L26.17,29.3L26.17,27.71C25.47,28.89,24.17 29.49, 22.26 29.49 C21.27,29.49,20.42 29.32, 19.7 28.99 C18.98,28.66,18.43 28.2, 18.04 27.61 C17.66,27.02,17.47 26.35, 17.47 25.61 C17.47,24.42,17.91 23.48, 18.81 22.8 C19.72,22.11,21.11 21.77, 22.98 21.77 L25.93,21.77C25.93,20.96,25.68 20.33, 25.18 19.89 C24.69,19.46,23.96 19.24, 22.98 19.24 C22.29,19.24,21.62 19.35, 20.97 19.57 C20.31,19.78,19.75 20.08, 19.28 20.44 L17.95,17.83C18.65,17.34,19.49 16.96, 20.47 16.69 C21.44,16.42,22.45 16.28, 23.48 16.28 zM23.18,26.99C23.82,26.99,24.38 26.84, 24.87 26.55 C25.37,26.26,25.72 25.83, 25.93 25.25 L25.93,23.94L23.39,23.94C21.86,23.94,21.09 24.44, 21.09 25.44 C21.09,25.92,21.28 26.3, 21.65 26.58 C22.03,26.85,22.54 26.99, 23.18 26.99 zM23.18,26.99"/>
                  </g>
                </g>
              </g>
              <g>
                <g>
                  <g>
                    <path fill="#2D3747" fill-opacity="1" d="M41.27,28.68C40.9,28.95,40.46 29.15, 39.93 29.28 C39.4,29.42,38.83 29.49, 38.24 29.49 C36.72,29.49,35.54 29.1, 34.71 28.33 C33.87,27.55,33.46 26.41, 33.46 24.89 L33.46,19.63L31.48,19.63L31.48,16.77L33.46,16.77L33.46,13.64L37.18,13.64L37.18,16.77L40.37,16.77L40.37,19.63L37.18,19.63L37.18,24.85C37.18,25.39,37.31 25.81, 37.58 26.1 C37.87,26.39,38.26 26.53, 38.77 26.53 C39.35,26.53,39.85 26.38, 40.27 26.07 zM41.27,28.68"/>
                  </g>
                </g>
              </g>
              <g>
                <g>
                  <g>
                    <path fill="#2D3747" fill-opacity="1" d="M48.54,16.28C50.52,16.28,52.04 16.76, 53.1 17.71 C54.17,18.66,54.71 20.08, 54.71 21.99 L54.71,29.3L51.23,29.3L51.23,27.71C50.53,28.89,49.23 29.49, 47.32 29.49 C46.33,29.49,45.48 29.32, 44.76 28.99 C44.04,28.66,43.49 28.2, 43.1 27.61 C42.72,27.02,42.52 26.35, 42.52 25.61 C42.52,24.42,42.97 23.48, 43.87 22.8 C44.77,22.11,46.17 21.77, 48.04 21.77 L50.99,21.77C50.99,20.96,50.74 20.33, 50.24 19.89 C49.75,19.46,49.02 19.24, 48.04 19.24 C47.35,19.24,46.68 19.35, 46.02 19.57 C45.37,19.78,44.81 20.08, 44.34 20.44 L43.01,17.83C43.7,17.34,44.54 16.96, 45.52 16.69 C46.5,16.42,47.51 16.28, 48.54 16.28 zM48.24,26.99C48.88,26.99,49.44 26.84, 49.93 26.55 C50.43,26.26,50.78 25.83, 50.99 25.25 L50.99,23.94L48.45,23.94C46.92,23.94,46.15 24.44, 46.15 25.44 C46.15,25.92,46.34 26.3, 46.71 26.58 C47.09,26.85,47.59 26.99, 48.24 26.99 zM48.24,26.99"/>
                  </g>
                </g>
              </g>
              <g>
                <g>
                  <g>
                    <path fill="#2D3747" fill-opacity="1" d="M74.49,16.28C76.09,16.28,77.36 16.76, 78.3 17.71 C79.24,18.66,79.72 20.07, 79.72 21.96 L79.72,29.3L76,29.3L76,22.53C76,21.51,75.79 20.75, 75.36 20.25 C74.94,19.75,74.35 19.5, 73.58 19.5 C72.71,19.5,72.01 19.79, 71.5 20.36 C70.99,20.92,70.74 21.76, 70.74 22.86 L70.74,29.3L67.02,29.3L67.02,22.53C67.02,20.51,66.21 19.5, 64.6 19.5 C63.73,19.5,63.04 19.79, 62.53 20.36 C62.03,20.92,61.78 21.76, 61.78 22.86 L61.78,29.3L58.07,29.3L58.07,16.49L61.61,16.49L61.61,17.96C62.09,17.42,62.67 17, 63.36 16.72 C64.05,16.43,64.81 16.28, 65.64 16.28 C66.55,16.28,67.37 16.47, 68.1 16.83 C68.82,17.19,69.41 17.71, 69.86 18.39 C70.38,17.73,71.04 17.21, 71.85 16.85 C72.65,16.47,73.53 16.28, 74.49 16.28 zM74.49,16.28"/>
                  </g>
                </g>
              </g>
              <g>
                <g>
                  <g>
                    <path fill="#2D3747" fill-opacity="1" d="M88.22,16.28C90.2,16.28,91.72 16.76, 92.79 17.71 C93.86,18.66,94.4 20.08, 94.4 21.99 L94.4,29.3L90.91,29.3L90.91,27.71C90.21,28.89,88.91 29.49, 87.01 29.49 C86.01,29.49,85.16 29.32, 84.44 28.99 C83.72,28.66,83.17 28.2, 82.79 27.61 C82.4,27.02,82.21 26.35, 82.21 25.61 C82.21,24.42,82.65 23.48, 83.55 22.8 C84.46,22.11,85.85 21.77, 87.72 21.77 L90.68,21.77C90.68,20.96,90.43 20.33, 89.93 19.89 C89.44,19.46,88.7 19.24, 87.72 19.24 C87.04,19.24,86.36 19.35, 85.71 19.57 C85.05,19.78,84.49 20.08, 84.02 20.44 L82.69,17.83C83.39,17.34,84.23 16.96, 85.21 16.69 C86.19,16.42,87.19 16.28, 88.22 16.28 zM87.93,26.99C88.56,26.99,89.12 26.84, 89.61 26.55 C90.11,26.26,90.47 25.83, 90.68 25.25 L90.68,23.94L88.13,23.94C86.6,23.94,85.83 24.44, 85.83 25.44 C85.83,25.92,86.02 26.3, 86.4 26.58 C86.77,26.85,87.28 26.99, 87.93 26.99 zM87.93,26.99"/>
                  </g>
                </g>
              </g>
              <g>
                <g>
                  <g>
                    <path fill="#2D3747" fill-opacity="1" d="M103.25,24.27L101.47,26.03L101.47,29.3L97.75,29.3L97.75,11.61L101.47,11.61L101.47,21.63L106.89,16.49L111.33,16.49L105.98,21.91L111.81,29.3L107.3,29.3zM103.25,24.27"/>
                  </g>
                </g>
              </g>
              <g>
                <g>
                  <g>
                    <path fill="#2D3747" fill-opacity="1" d="M113.47,16.49L117.19,16.49L117.19,29.3L113.47,29.3zM115.33,14.69C114.64,14.69,114.08 14.5, 113.66 14.1 C113.23,13.7,113.02 13.21, 113.02 12.63 C113.02,12.03,113.23 11.54, 113.66 11.14 C114.08,10.75,114.64 10.55, 115.33 10.55 C116.01,10.55,116.56 10.75, 116.99 11.13 C117.41,11.5,117.63 11.98, 117.63 12.55 C117.63,13.17,117.41 13.68, 116.99 14.08 C116.56,14.49,116.01 14.69, 115.33 14.69 zM115.33,14.69"/>
                  </g>
                </g>
              </g>
              <g>
                <g>
                  <g>
                    <path fill="#2D3747" fill-opacity="1" d="M128.42,16.28C130.02,16.28,131.3 16.76, 132.28 17.72 C133.26,18.67,133.75 20.08, 133.75 21.96 L133.75,29.3L130.03,29.3L130.03,22.53C130.03,21.51,129.8 20.75, 129.36 20.25 C128.91,19.75,128.27 19.5, 127.42 19.5 C126.48,19.5,125.74 19.8, 125.19 20.38 C124.63,20.96,124.36 21.82, 124.36 22.96 L124.36,29.3L120.64,29.3L120.64,16.49L124.19,16.49L124.19,17.99C124.68,17.45,125.29 17.03, 126.02 16.74 C126.75,16.44,127.55 16.28, 128.42 16.28 zM128.42,16.28"/>
                  </g>
                </g>
              </g>
              <g>
                <g>
                  <g>
                    <path fill="#2D3747" fill-opacity="1" d="M150.32,16.49L150.32,27.16C150.32,29.5,149.7 31.25, 148.48 32.39 C147.26,33.54,145.48 34.11, 143.13 34.11 C141.89,34.11,140.71 33.96, 139.6 33.66 C138.48,33.35,137.56 32.92, 136.83 32.35 L138.32,29.68C138.85,30.12,139.53 30.48, 140.35 30.74 C141.18,31,142.01 31.13, 142.83 31.13 C144.12,31.13,145.07 30.84, 145.68 30.25 C146.29,29.68,146.6 28.81, 146.6 27.63 L146.6,27.08C145.63,28.14,144.28 28.68, 142.55 28.68 C141.37,28.68,140.3 28.42, 139.32 27.91 C138.35,27.39,137.58 26.66, 137.01 25.72 C136.43,24.78,136.15 23.71, 136.15 22.49 C136.15,21.26,136.43 20.18, 137.01 19.24 C137.58,18.3,138.35 17.58, 139.32 17.07 C140.3,16.55,141.37 16.28, 142.55 16.28 C144.41,16.28,145.82 16.9, 146.79 18.13 L146.79,16.49zM143.29,25.63C144.28,25.63,145.08 25.34, 145.71 24.77 C146.33,24.19,146.65 23.42, 146.65 22.49 C146.65,21.55,146.33 20.8, 145.71 20.22 C145.08,19.64,144.28 19.35, 143.29 19.35 C142.31,19.35,141.5 19.64, 140.87 20.22 C140.23,20.8,139.91 21.55, 139.91 22.49 C139.91,23.42,140.23 24.19, 140.87 24.77 C141.5,25.34,142.31 25.63, 143.29 25.63 zM143.29,25.63"/>
                  </g>
                </g>
              </g>
              <g>
                <g>
                  <g>
                    <path fill="#2D3747" fill-opacity="1" d="M158.09,29.49C157.03,29.49,155.99 29.35, 154.97 29.1 C153.95,28.84,153.13 28.51, 152.53 28.11 L153.78,25.44C154.35,25.81,155.04 26.1, 155.84 26.33 C156.66,26.56,157.45 26.68, 158.23 26.68 C159.8,26.68,160.59 26.29, 160.59 25.52 C160.59,25.14,160.38 24.88, 159.95 24.72 C159.52,24.57,158.86 24.43, 157.97 24.32 C156.93,24.16,156.06 23.98, 155.37 23.77 C154.69,23.56,154.09 23.2, 153.59 22.68 C153.09,22.16,152.84 21.41, 152.84 20.44 C152.84,19.63,153.08 18.91, 153.55 18.28 C154.02,17.65,154.7 17.16, 155.59 16.82 C156.5,16.46,157.56 16.28, 158.78 16.28 C159.69,16.28,160.59 16.39, 161.48 16.58 C162.38,16.78,163.12 17.06, 163.72 17.41 L162.47,20.05C161.34,19.42,160.11 19.1, 158.78 19.1 C157.99,19.1,157.39 19.21, 157 19.44 C156.6,19.66,156.41 19.95, 156.41 20.3 C156.41,20.7,156.62 20.97, 157.05 21.13 C157.47,21.28,158.16 21.44, 159.09 21.58 C160.14,21.76,161 21.95, 161.67 22.14 C162.34,22.34,162.91 22.7, 163.41 23.22 C163.89,23.75,164.14 24.47, 164.14 25.41 C164.14,26.21,163.9 26.92, 163.42 27.55 C162.95,28.17,162.26 28.64, 161.34 28.99 C160.43,29.32,159.34 29.49, 158.09 29.49 zM158.09,29.49"/>
                  </g>
                </g>
              </g>
              <g>
                <g>
                  <g>
                    <path fill="#2D3747" fill-opacity="1" d="M178.98,22.94C178.98,22.98,178.95 23.32, 178.91 23.94 L169.21,23.94C169.39,24.73,169.8 25.36, 170.45 25.83 C171.1,26.29,171.91 26.52, 172.88 26.52 C173.55,26.52,174.14 26.42, 174.65 26.22 C175.17,26.01,175.65 25.7, 176.1 25.27 L178.09,27.42C176.88,28.8,175.11 29.49, 172.79 29.49 C171.34,29.49,170.06 29.21, 168.95 28.64 C167.84,28.08,166.98 27.3, 166.38 26.3 C165.78,25.3,165.48 24.17, 165.48 22.89 C165.48,21.64,165.77 20.5, 166.37 19.5 C166.96,18.5,167.78 17.71, 168.82 17.14 C169.86,16.57,171.02 16.28, 172.3 16.28 C173.56,16.28,174.7 16.56, 175.71 17.1 C176.73,17.64,177.53 18.42, 178.1 19.42 C178.68,20.44,178.98 21.61, 178.98 22.94 zM172.34,19.1C171.49,19.1,170.78 19.34, 170.21 19.82 C169.64,20.3,169.29 20.95, 169.16 21.77 L175.48,21.77C175.35,20.96,175 20.31, 174.43 19.83 C173.86,19.34,173.16 19.1, 172.34 19.1 zM172.34,19.1"/>
                  </g>
                </g>
              </g>
              <g>
                <g>
                  <g>
                    <path fill="#2D3747" fill-opacity="1" d="M189.24,16.28C190.84,16.28,192.12 16.76, 193.1 17.72 C194.08,18.67,194.57 20.08, 194.57 21.96 L194.57,29.3L190.85,29.3L190.85,22.53C190.85,21.51,190.62 20.75, 190.18 20.25 C189.73,19.75,189.09 19.5, 188.24 19.5 C187.3,19.5,186.56 19.8, 186.01 20.38 C185.45,20.96,185.18 21.82, 185.18 22.96 L185.18,29.3L181.46,29.3L181.46,16.49L185.01,16.49L185.01,17.99C185.5,17.45,186.1 17.03, 186.84 16.74 C187.57,16.44,188.37 16.28, 189.24 16.28 zM189.24,16.28"/>
                  </g>
                </g>
              </g>
              <g>
                <g>
                  <g>
                    <path fill="#2D3747" fill-opacity="1" d="M202.23,29.49C201.17,29.49,200.13 29.35, 199.11 29.1 C198.08,28.84,197.27 28.51, 196.67 28.11 L197.92,25.44C198.49,25.81,199.18 26.1, 199.98 26.33 C200.79,26.56,201.59 26.68, 202.37 26.68 C203.94,26.68,204.73 26.29, 204.73 25.52 C204.73,25.14,204.52 24.88, 204.09 24.72 C203.66,24.57,203 24.43, 202.11 24.32 C201.06,24.16,200.2 23.98, 199.51 23.77 C198.83,23.56,198.23 23.2, 197.73 22.68 C197.23,22.16,196.98 21.41, 196.98 20.44 C196.98,19.63,197.22 18.91, 197.69 18.28 C198.15,17.65,198.83 17.16, 199.73 16.82 C200.64,16.46,201.7 16.28, 202.92 16.28 C203.83,16.28,204.72 16.39, 205.62 16.58 C206.52,16.78,207.26 17.06, 207.86 17.41 L206.61,20.05C205.48,19.42,204.25 19.1, 202.92 19.1 C202.13,19.1,201.53 19.21, 201.14 19.44 C200.74,19.66,200.54 19.95, 200.54 20.3 C200.54,20.7,200.76 20.97, 201.19 21.13 C201.61,21.28,202.29 21.44, 203.23 21.58 C204.28,21.76,205.14 21.95, 205.81 22.14 C206.47,22.34,207.05 22.7, 207.54 23.22 C208.03,23.75,208.28 24.47, 208.28 25.41 C208.28,26.21,208.04 26.92, 207.56 27.55 C207.09,28.17,206.4 28.64, 205.48 28.99 C204.56,29.32,203.48 29.49, 202.23 29.49 zM202.23,29.49"/>
                  </g>
                </g>
              </g>
              <g>
                <g>
                  <g>
                    <path fill="#2D3747" fill-opacity="1" d="M223.12,22.94C223.12,22.98,223.09 23.32, 223.05 23.94 L213.35,23.94C213.53,24.73,213.94 25.36, 214.58 25.83 C215.24,26.29,216.05 26.52, 217.02 26.52 C217.69,26.52,218.28 26.42, 218.79 26.22 C219.31,26.01,219.79 25.7, 220.24 25.27 L222.22,27.42C221.01,28.8,219.25 29.49, 216.93 29.49 C215.48,29.49,214.2 29.21, 213.08 28.64 C211.98,28.08,211.12 27.3, 210.52 26.3 C209.92,25.3,209.62 24.17, 209.62 22.89 C209.62,21.64,209.91 20.5, 210.51 19.5 C211.1,18.5,211.92 17.71, 212.96 17.14 C214,16.57,215.16 16.28, 216.44 16.28 C217.7,16.28,218.84 16.56, 219.85 17.1 C220.87,17.64,221.67 18.42, 222.24 19.42 C222.82,20.44,223.12 21.61, 223.12 22.94 zM216.47,19.1C215.63,19.1,214.92 19.34, 214.35 19.82 C213.78,20.3,213.43 20.95, 213.3 21.77 L219.62,21.77C219.49,20.96,219.14 20.31, 218.57 19.83 C217.99,19.34,217.29 19.1, 216.47 19.1 zM216.47,19.1"/>
                  </g>
                </g>
              </g>
            </g>
          </g>
        </g>
        <g>
          <g>
            <g>
              <path fill="#BA1C1C" fill-opacity="1" d="M225.74,29.44C225.32,29.44,224.96 29.3, 224.67 29.02 C224.39,28.73,224.25 28.38, 224.25 27.97 C224.25,27.56,224.39 27.21, 224.67 26.92 C224.96,26.64,225.32 26.49, 225.74 26.49 C226.13,26.49,226.46 26.64, 226.74 26.92 C227.02,27.21,227.16 27.56, 227.16 27.97 C227.16,28.38,227.02 28.73, 226.74 29.02 C226.46,29.3,226.13 29.44, 225.74 29.44 zM225.74,29.44"/>
            </g>
          </g>
        </g>
        <g>
          <g>
            <g>
              <path fill="#BA1C1C" fill-opacity="1" d="M233.18,29.52C232.18,29.52,231.28 29.35, 230.49 29 C229.7,28.66,229.07 28.19, 228.6 27.58 C228.14,26.97,227.89 26.26, 227.85 25.47 L230.09,25.47C230.15,26.12,230.45 26.65, 230.99 27.07 C231.54,27.47,232.26 27.68, 233.15 27.68 C233.98,27.68,234.63 27.5, 235.1 27.13 C235.58,26.76,235.82 26.31, 235.82 25.75 C235.82,25.18,235.56 24.76, 235.06 24.49 C234.56,24.21,233.78 23.93, 232.71 23.66 C231.74,23.4,230.95 23.14, 230.34 22.88 C229.72,22.62,229.2 22.23, 228.76 21.72 C228.32,21.2,228.1 20.52, 228.1 19.68 C228.1,19.01,228.3 18.4, 228.7 17.85 C229.1,17.3,229.67 16.86, 230.4 16.53 C231.13,16.2,231.96 16.03, 232.9 16.03 C234.34,16.03,235.5 16.4, 236.38 17.13 C237.28,17.86,237.76 18.86, 237.82 20.13 L235.67,20.13C235.61,19.45,235.34 18.91, 234.84 18.49 C234.34,18.07,233.67 17.86, 232.82 17.86 C232.04,17.86,231.42 18.03, 230.96 18.36 C230.5,18.7,230.28 19.14, 230.28 19.68 C230.28,20.1,230.41 20.46, 230.68 20.74 C230.96,21.02,231.31 21.25, 231.73 21.41 C232.15,21.58,232.74 21.76, 233.49 21.97 C234.43,22.22,235.19 22.47, 235.78 22.72 C236.37,22.96,236.87 23.33, 237.29 23.83 C237.71,24.32,237.92 24.96, 237.95 25.75 C237.95,26.47,237.75 27.12, 237.35 27.69 C236.96,28.25,236.39 28.7, 235.67 29.03 C234.95,29.35,234.12 29.52, 233.18 29.52 zM233.18,29.52"/>
            </g>
          </g>
        </g>
        <g>
          <g>
            <g>
              <path fill="#BA1C1C" fill-opacity="1" d="M241.68,18.66C242.11,17.91,242.74 17.28, 243.59 16.78 C244.44,16.28,245.43 16.03, 246.55 16.03 C247.72,16.03,248.77 16.32, 249.71 16.88 C250.66,17.43,251.4 18.21, 251.95 19.22 C252.48,20.22,252.76 21.39, 252.76 22.72 C252.76,24.05,252.48 25.22, 251.95 26.25 C251.4,27.28,250.66 28.09, 249.71 28.66 C248.77,29.23,247.72 29.52, 246.55 29.52 C245.45,29.52,244.47 29.27, 243.62 28.77 C242.77,28.27,242.12 27.64, 241.68 26.89 L241.68,35.49L239.51,35.49L239.51,16.25L241.68,16.25zM250.54,22.72C250.54,21.75,250.34 20.89, 249.95 20.16 C249.55,19.43,249.01 18.88, 248.34 18.5 C247.66,18.12,246.91 17.92, 246.1 17.92 C245.31,17.92,244.57 18.12, 243.9 18.5 C243.23,18.89,242.7 19.45, 242.29 20.19 C241.88,20.93,241.68 21.78, 241.68 22.75 C241.68,23.73,241.88 24.59, 242.29 25.33 C242.7,26.07,243.23 26.64, 243.9 27.03 C244.57,27.42,245.31 27.61, 246.1 27.61 C246.91,27.61,247.66 27.42, 248.34 27.03 C249.01,26.64,249.55 26.07, 249.95 25.33 C250.34,24.59,250.54 23.72, 250.54 22.72 zM250.54,22.72"/>
            </g>
          </g>
        </g>
        <g>
          <g>
            <g>
              <path fill="#BA1C1C" fill-opacity="1" d="M253.33,22.72C253.33,21.39,253.59 20.22, 254.13 19.22 C254.66,18.21,255.41 17.43, 256.36 16.88 C257.31,16.32,258.36 16.03, 259.52 16.03 C260.66,16.03,261.65 16.28, 262.48 16.78 C263.33,17.28,263.96 17.89, 264.38 18.63 L264.38,16.25L266.56,16.25L266.56,29.3L264.38,29.3L264.38,26.88C263.95,27.64,263.31 28.27, 262.45 28.77 C261.6,29.27,260.61 29.52, 259.48 29.52 C258.33,29.52,257.28 29.23, 256.34 28.66 C255.41,28.09,254.66 27.28, 254.13 26.25 C253.59,25.22,253.33 24.05, 253.33 22.72 zM264.38,22.75C264.38,21.76,264.17 20.91, 263.77 20.18 C263.37,19.45,262.83 18.89, 262.16 18.5 C261.49,18.12,260.75 17.92, 259.94 17.92 C259.13,17.92,258.38 18.12, 257.72 18.5 C257.05,18.88,256.52 19.43, 256.13 20.16 C255.73,20.89,255.53 21.75, 255.53 22.72 C255.53,23.72,255.73 24.59, 256.13 25.33 C256.52,26.07,257.05 26.64, 257.72 27.03 C258.38,27.42,259.13 27.61, 259.94 27.61 C260.75,27.61,261.49 27.42, 262.16 27.03 C262.83,26.64,263.37 26.07, 263.77 25.33 C264.17,24.59,264.38 23.73, 264.38 22.75 zM264.38,22.75"/>
            </g>
          </g>
        </g>
        <g>
          <g>
            <g>
              <path fill="#BA1C1C" fill-opacity="1" d="M267.95,22.75C267.95,21.4,268.21 20.22, 268.74 19.22 C269.28,18.21,270.03 17.43, 270.99 16.88 C271.96,16.32,273.06 16.03, 274.29 16.03 C275.89,16.03,277.22 16.42, 278.26 17.21 C279.3,17.98,279.99 19.06, 280.32 20.44 L277.99,20.44C277.76,19.65,277.33 19.03, 276.68 18.57 C276.04,18.1,275.25 17.86, 274.29 17.86 C273.06,17.86,272.06 18.29, 271.29 19.14 C270.53,20,270.15 21.2, 270.15 22.75 C270.15,24.33,270.53 25.54, 271.29 26.39 C272.06,27.25,273.06 27.68, 274.29 27.68 C275.25,27.68,276.04 27.46, 276.68 27.02 C277.31,26.57,277.75 25.94, 277.99 25.11 L280.32,25.11C279.97,26.45,279.26 27.51, 278.21 28.32 C277.17,29.12,275.86 29.52, 274.29 29.52 C273.06,29.52,271.96 29.25, 270.99 28.69 C270.03,28.13,269.28 27.34, 268.74 26.33 C268.21,25.31,267.95 24.12, 267.95 22.75 zM267.95,22.75"/>
            </g>
          </g>
        </g>
        <g>
          <g>
            <g>
              <g>
                <path fill="#BA1C1C" fill-opacity="1" d="M293.62,22.27C293.62,22.69,293.6 23.12, 293.56 23.58 L283.12,23.58C283.21,24.87,283.65 25.88, 284.45 26.6 C285.25,27.32,286.23 27.68, 287.37 27.68 C288.3,27.68,289.08 27.46, 289.7 27.03 C290.34,26.6,290.78 26.01, 291.03 25.27 L293.37,25.27C293.02,26.53,292.32 27.56, 291.27 28.35 C290.22,29.13,288.93 29.52, 287.37 29.52 C286.13,29.52,285.02 29.25, 284.05 28.69 C283.07,28.13,282.3 27.34, 281.75 26.32 C281.19,25.28,280.92 24.1, 280.92 22.75 C280.92,21.4,281.19 20.22, 281.72 19.21 C282.26,18.19,283.02 17.41, 284 16.86 C284.98,16.31,286.1 16.03, 287.37 16.03 C288.6,16.03,289.69 16.31, 290.64 16.85 C291.6,17.39,292.33 18.14, 292.84 19.08 C293.36,20.02,293.62 21.08, 293.62 22.27 zM291.39,21.82C291.39,21,291.21 20.28, 290.84 19.69 C290.48,19.1,289.98 18.64, 289.36 18.33 C288.73,18.02,288.03 17.86, 287.27 17.86 C286.17,17.86,285.24 18.22, 284.47 18.92 C283.69,19.62,283.26 20.59, 283.16 21.82 zM291.39,21.82"/>
              </g>
            </g>
          </g>
        </g>
      </g>
    </g>
  </g>
</svg>
