<?xml version="1.0" encoding="utf-8"?>
<!-- Created with: Axialis IconVectors - www.axialis.com -->
<svg version="1.1" xmlns="http://www.w3.org/2000/svg" xmlns:xlink="http://www.w3.org/1999/xlink" viewBox="0 0 384 383">
  <path fill="#E1E8F0" fill-opacity="1" fill-rule="nonzero" stroke="#E1E8F0" stroke-width="4.75" d="M247.39,12.97L248.41,13.41C259.58,18.3,270.03 25.3, 278.99 33.55 C279.78,34.27,280.57 34.96, 281.39 35.65 C284.84,38.67,288.05 41.96, 290.9 45.56 C291.78,46.67,292.69 47.73, 293.62 48.79 C306.93,64.84,315.16 84.52, 318.84 104.93 C322.09,124.4,320.35 144.27, 314.73 163.1 C314.63,163.46,314.52 163.82, 314.41 164.19 C309.25,181.18,300.43 196.73, 288.98 210.24 L287.92,211.51C286.24,213.52,284.54 215.51, 282.77 217.45 C281.38,218.98,280.07 220.56, 278.79 222.19 C278.14,223.01,277.48 223.81, 276.8 224.6 C264.03,239.65,254.83 257.82, 250.96 277.19 L250.68,278.55C250.45,279.81,250.3 281.06, 250.16 282.34 L250.04,283.31C249.57,286.98,249.57 286.98, 249.77 290.66 C250.51,291.87,251.17 292.4, 252.35 293.16 C254.07,294.32,255.08 296.02, 256.1 297.79 C257.96,301.71,258.33 305.27, 258.16 309.57 C257.96,311.96,257.01 314.11, 256.02 316.26 L255.71,317.2C256.21,318.41,256.21 318.41, 256.9 319.57 C257.22,320.88,257.35 322.11, 257.36 323.46 L257.37,324.57L257.37,325.75L257.38,327C257.39,327.86,257.39 328.73, 257.39 329.59 C257.39,330.9,257.4 332.22, 257.42 333.52 C257.42,334.37,257.42 335.21, 257.42 336.06 L257.44,337.23C257.43,340.38,256.88 343.27, 255.54 346.14 C253.39,349.5,251.27 352.01, 247.79 354.04 C244.28,355.62,240.94 356.07, 237.14 356.24 L236.08,356.29C235.23,356.34,234.38 356.38, 233.53 356.41 L233.2,357.42C231.4,362.77,229.03 367.65, 225.2 371.87 L224.23,372.95C219.98,377.45,214.88 380.53, 208.97 382.42 C202.74,384.27,196.02 384.48, 189.68 383.08 C183.04,381.45,177.11 378.13, 172.12 373.45 C168.03,369.15,165.19 364.06, 163.09 358.54 C162.82,357.83,162.52 357.12, 162.22 356.41 C161.2,355.91,160.46 355.96, 159.32 355.94 C158.9,355.93,158.47 355.91, 158.03 355.9 C157.14,355.88,156.25 355.86, 155.35 355.85 C152.11,355.76,149.34 355.29, 146.41 353.88 C143.09,351.81,140.71 349.91, 138.68 346.5 C136.89,343.13,136.25 340.05, 136.31 336.28 C136.41,333.65,136.8 331.28, 138.19 329 C138.54,328.48,138.91 327.96, 139.29 327.45 L139.64,326.71C139.46,324.88,138.7 323.22, 138.03 321.52 C137.05,318.47,137.19 315.35, 137.19 312.17 L137.17,310.73C137.16,305.81,137.73 301.39, 140.04 297 C141.09,295.34,142.14 293.86, 143.81 292.79 C144.97,292.02,145.64 291.46, 146.37 290.26 C146.76,287.64,146.06 284.91, 145.58 282.34 C145.44,281.5,145.3 280.66, 145.16 279.83 C141.47,258.75,132.01 239.98, 118.36 223.6 C117.27,222.31,116.18 221.03, 115.08 219.75 L113.93,218.4L112.75,217.02L112.15,216.33C111.14,215.15,110.12 213.97, 109.09 212.81 C96.98,199.16,87.8 183.49, 81.8 166.27 L81.46,165.34C79.94,161.1,78.92 156.75, 77.96 152.36 L77.79,151.58C76,143.44,75.26 135.26, 75.31 126.94 C75.32,125.67,75.31 124.4, 75.3 123.13 C75.29,115.39,76.02 107.7, 77.72 100.14 L78.02,98.76C80.46,88.09,84.14 77.68, 89.33 68.03 L89.77,67.19C93.41,60.26,97.83 53.88, 102.8 47.83 L103.31,47.19C105.94,43.94,108.8 40.96, 111.73 38 L112.77,36.95C115.13,34.6,117.62 32.47, 120.23 30.4 C120.68,30.03,121.13 29.66, 121.57 29.29 C127.69,24.37,134.27 20.17, 141.22 16.53 L142.02,16.11C174.63,-1.01,213.77 -1.61, 247.39 12.97 M142.59,31.41C139.53,33.32,136.57 35.36, 133.7 37.53 L133,38.05C125.43,43.76,118.01 50.54, 112.3 58.13 L111.69,58.92C108.41,63.18,105.49 67.53, 102.91 72.25 C102.41,73.16,101.9 74.06, 101.39 74.96 C92.63,90.69,88.68 109.2, 88.94 127.1 C89.52,148.51,95.54 168.15, 106.5 186.46 C109.98,192.02,114 197.31, 118.25 202.32 L119.27,203.53C120.97,205.56,122.69 207.58, 124.42 209.58 C139.15,226.71,150.95 245.48, 156.6 267.53 L156.81,268.34C158.49,274.79,159.24 281.27, 160.24 287.88 L235.9,287.88L237.09,277.59C240.73,255.65,250.11 235.83, 264.03 218.56 C265.83,216.38,267.67 214.24, 269.52 212.09 C278.12,202.11,286.1 192.05, 292.55 180.53 L293.07,179.63C299.22,168.76,303.21 156.4, 305.23 144.09 L305.36,143.29C308.39,124.36,306.37 104.5, 299.62 86.62 C298.66,84.22,297.62 81.86, 296.51 79.52 L296.1,78.64C295.22,76.8,294.3 74.98, 293.34 73.18 L292.97,72.47C287.08,61.53,278.73 51.04, 269.18 43.07 L268.58,42.56C254.11,30.15,236.76 21.86, 218.08 18.12 C192.55,13.62,164.85 17.83, 142.59 31.41 M153.5,302.15C152.57,302.86,152.19 303.52, 151.52 304.52 C151.01,306.27,151.11 308.02, 151.18 309.82 L151.2,310.77C151.23,311.76,151.27 312.76, 151.3 313.76 L151.36,315.79C151.41,317.45,151.47 319.11, 151.52 320.76 C152.74,321.14,153.64 321.16, 154.9 320.98 L156,320.82L157.22,320.64L158.55,320.45C159.79,320.27,161.02 320.09, 162.27 319.91 C163.62,319.72,164.98 319.52, 166.34 319.33 C168.53,319.02,170.72 318.7, 172.91 318.39 C180.9,317.24,188.9 316.11, 196.9 314.98 C199.35,314.64,201.79 314.29, 204.24 313.94 C207.04,313.54,209.85 313.15, 212.66 312.75 L214.03,312.56C219.18,311.84,224.32 311.16, 229.48 310.56 L230.91,310.4C233.18,310.14,235.44 309.88, 237.71 309.64 L238.94,309.5C239.7,309.41,240.46 309.33, 241.22 309.25 L242.23,309.14L243.11,309.04L243.82,308.88L244.62,308.09C244.78,306.75,244.78 306.75, 244.62 305.31 C243.94,303.86,243.05 302.8, 241.84 301.75 C240.33,301.24,238.9 301.3, 237.33 301.3 L236.29,301.3C235.13,301.3,233.97 301.29, 232.82 301.3 L230.34,301.29C228.09,301.29,225.84 301.29, 223.59 301.29 C221.71,301.29,219.83 301.29, 217.95 301.29 C213.52,301.28,209.1 301.28, 204.67 301.28 C200.1,301.28,195.52 301.28, 190.95 301.27 C187.03,301.27,183.11 301.26, 179.19 301.26 C176.84,301.26,174.5 301.26, 172.16 301.26 C169.95,301.25,167.75 301.25, 165.55 301.25 C164.74,301.26,163.93 301.25, 163.12 301.25 C162.02,301.25,160.91 301.25, 159.81 301.25 L158.84,301.25C156.91,301.26,155.32 301.51, 153.5 302.15 M234.4,323.46C233.81,323.54,233.22 323.61, 232.63 323.69 C231.03,323.9,229.42 324.11, 227.82 324.32 C226.47,324.5,225.12 324.68, 223.76 324.85 C204.64,327.36,185.52 329.92, 166.43 332.65 L165.28,332.81C160.43,333.51,155.57 334.25, 150.73 335.02 C150.25,336.46,150.21 337.48, 150.33 338.98 C150.95,340.32,150.95 340.32, 151.92 341.36 C153.7,342.34,155.43 342.27, 157.4 342.26 C157.75,342.26,158.11 342.26, 158.47 342.26 C159.66,342.27,160.84 342.27, 162.02 342.27 L164.56,342.27C166.87,342.28,169.17 342.28, 171.47 342.27 C173.4,342.27,175.32 342.28, 177.24 342.28 C181.77,342.28,186.31 342.28, 190.84 342.28 C195.52,342.28,200.2 342.28, 204.87 342.29 C208.89,342.3,212.9 342.3, 216.92 342.3 C219.32,342.3,221.72 342.3, 224.12 342.31 C226.37,342.31,228.63 342.31, 230.88 342.31 C231.71,342.31,232.54 342.31, 233.37 342.31 C234.5,342.31,235.63 342.31, 236.76 342.31 L237.75,342.31C239.19,342.3,240.1 342.23, 241.42 341.6 C242.47,340.79,242.92 340.22, 243.43 338.98 C243.58,337.73,243.57 336.5, 243.55 335.24 L243.54,334.16C243.53,333.02,243.52 331.88, 243.5 330.74 C243.5,329.97,243.49 329.2, 243.49 328.42 C243.47,326.53,243.45 324.64, 243.43 322.75 C240.38,322.63,237.42 323.06, 234.4 323.46 M177.27,356.02C178.3,359.28,180.32 361.63, 182.82 363.94 L183.39,364.5C186.14,367.07,189.45 368.57, 193.09 369.44 C197.74,370.29,202.06 370.06, 206.59 368.7 C210.46,367.27,213.31 364.92, 216.1 361.96 C217.68,360.04,218.82 358.48, 219.26 356.02 C213.12,355.59,206.99 355.56, 200.84 355.57 C199.44,355.57,198.05 355.57, 196.66 355.57 C190.19,355.56,183.74 355.66, 177.27 356.02 "/>
  <path fill="#E3243B" fill-opacity="1" fill-rule="nonzero" d="M231.68,105.45L233.1,105.45C234.09,105.45,235.07,105.45,236.06,105.45C237.57,105.46,239.08,105.45,240.59,105.45C241.55,105.45,242.51,105.45,243.47,105.45L244.84,105.44C247.95,105.48,247.95,105.48,249.51,106.37C250.24,107.23,250.64,107.78,251.04,108.83C251.12,109.95,251.15,111.03,251.15,112.15L251.16,113.17C251.16,114.3,251.16,115.44,251.16,116.57C251.16,117.38,251.16,118.2,251.17,119.01C251.17,121.21,251.18,123.42,251.18,125.63C251.18,127.47,251.18,129.32,251.18,131.16C251.19,135.5,251.19,139.85,251.19,144.19C251.19,148.68,251.2,153.16,251.21,157.64C251.22,161.49,251.23,165.34,251.23,169.19C251.23,171.49,251.23,173.79,251.23,176.09C251.24,178.25,251.24,180.41,251.24,182.57C251.24,183.37,251.24,184.16,251.24,184.95C251.25,186.04,251.25,187.12,251.24,188.2L251.25,189.16C251.23,190.75,251.09,191.54,250.3,192.98C249.46,194,249.46,194,248.43,194.73C246.56,195.36,244.84,195.36,242.88,195.35L241.65,195.35C240.8,195.35,239.95,195.35,239.1,195.34C237.8,195.34,236.51,195.34,235.21,195.35C234.38,195.35,233.55,195.35,232.72,195.35L231.55,195.35C229.3,195.33,227.69,195.09,225.69,194C224.77,193.08,224.22,192.42,223.87,191.17C223.66,189.7,223.65,188.25,223.66,186.76L223.65,185.77C223.65,184.67,223.64,183.57,223.64,182.47L223.64,180.1C223.64,177.96,223.63,175.82,223.63,173.68C223.63,172.34,223.63,171,223.62,169.66C223.62,165.48,223.62,161.29,223.62,157.11C223.61,152.27,223.61,147.44,223.59,142.61C223.59,138.87,223.58,135.14,223.58,131.4C223.58,129.17,223.58,126.94,223.57,124.71C223.57,122.61,223.57,120.51,223.57,118.41C223.57,117.64,223.57,116.87,223.56,116.1C223.56,115.05,223.56,114,223.57,112.95L223.55,112.02C223.57,110.61,223.72,109.59,224.27,108.29C224.9,107.25,224.9,107.25,225.66,106.32C227.6,105.27,229.52,105.43,231.68,105.45"/>
  <path fill="#E36262" fill-opacity="1" fill-rule="nonzero" d="M 242.242188 51.671875 C 242.808594 51.664062 243.375 51.65625 243.941406 51.644531 C 244.742188 51.628906 245.546875 51.621094 246.351562 51.617188 L 247.761719 51.601562 C 249.0625 51.785156 249.0625 51.785156 250.371094 52.492188 C 251.441406 53.371094 251.441406 53.371094 251.96875 54.164062 C 253.523438 58.84375 252.886719 64.742188 253.023438 69.613281 L 253.058594 70.746094 C 253.089844 71.671875 253.109375 72.597656 253.125 73.523438 L 253.152344 75.03125 C 253.007812 76.519531 252.609375 77.453125 251.835938 78.722656 C 250.941406 79.53125 250.140625 80.164062 249.0625 80.703125 C 247.859375 80.851562 246.703125 80.84375 245.496094 80.703125 C 244.160156 80.109375 244.160156 80.109375 243.121094 79.121094 C 242.003906 77.140625 241.734375 75.015625 241.535156 72.78125 C 239.609375 74.398438 237.761719 76.097656 235.988281 77.882812 L 235.296875 78.570312 C 234.15625 79.714844 233.0625 80.875 232.015625 82.105469 C 229.492188 85.027344 226.664062 87.675781 223.921875 90.386719 C 223.160156 91.140625 222.402344 91.894531 221.640625 92.648438 L 220.949219 93.332031 C 219.800781 94.476562 218.699219 95.640625 217.640625 96.871094 C 215.960938 98.8125 214.164062 100.628906 212.355469 102.453125 L 211.265625 103.550781 C 210.511719 104.3125 209.753906 105.074219 208.996094 105.835938 C 208.03125 106.808594 207.066406 107.78125 206.105469 108.757812 C 205.179688 109.699219 204.25 110.628906 203.320312 111.5625 L 202.28125 112.625 L 201.300781 113.601562 L 200.445312 114.460938 C 199.390625 115.289062 198.453125 115.613281 197.167969 115.960938 C 195.207031 116.230469 193.351562 116.136719 191.5 115.414062 C 189.175781 114.257812 187.1875 112.574219 185.171875 110.957031 C 183.628906 109.726562 182.054688 108.527344 180.484375 107.328125 C 179.804688 106.808594 179.128906 106.28125 178.460938 105.75 C 177.683594 105.132812 177.683594 105.132812 176.570312 104.472656 C 175.769531 104.511719 175.769531 104.511719 174.984375 104.867188 C 174.257812 105.421875 174.257812 105.421875 173.570312 106.148438 L 172.738281 106.976562 L 171.84375 107.890625 L 170.886719 108.847656 C 169.84375 109.894531 168.804688 110.949219 167.765625 112 C 167.042969 112.726562 166.320312 113.453125 165.597656 114.179688 C 163.496094 116.289062 161.398438 118.40625 159.304688 120.519531 C 156.453125 123.394531 153.601562 126.269531 150.746094 129.136719 C 149.675781 130.210938 148.613281 131.289062 147.546875 132.363281 L 145.59375 134.332031 L 144.695312 135.246094 L 143.867188 136.074219 L 143.152344 136.796875 C 142.5 137.351562 142.5 137.351562 141.3125 137.75 C 140.105469 137.886719 138.953125 137.898438 137.75 137.75 C 136.414062 137.082031 135.609375 136.429688 134.628906 135.320312 C 134.082031 133.921875 134.039062 132.742188 134.023438 131.25 C 134.226562 129.925781 134.714844 129.015625 135.371094 127.84375 C 136.226562 126.863281 136.226562 126.863281 137.210938 125.90625 L 138.296875 124.832031 L 139.433594 123.734375 C 140.167969 123.015625 140.90625 122.292969 141.640625 121.570312 L 142.628906 120.613281 C 143.4375 119.785156 144.214844 118.929688 144.964844 118.054688 C 146.644531 116.117188 148.457031 114.320312 150.277344 112.519531 L 151.363281 111.4375 C 152.695312 110.113281 154.027344 108.789062 155.359375 107.464844 C 156.671875 106.164062 157.980469 104.859375 159.289062 103.554688 L 160.320312 102.535156 C 162.25 100.613281 164.101562 98.617188 165.875 96.550781 C 168.050781 94.167969 170.289062 92.042969 173.402344 91.003906 C 175.0625 90.789062 176.648438 90.796875 178.265625 91.265625 C 180.910156 92.457031 183.136719 94.3125 185.402344 96.085938 C 188.308594 98.359375 191.335938 100.4375 194.394531 102.492188 C 196.109375 101.832031 197.253906 100.535156 198.515625 99.261719 L 199.277344 98.503906 C 200.105469 97.675781 200.929688 96.84375 201.757812 96.015625 L 203.488281 94.28125 C 204.699219 93.070312 205.910156 91.859375 207.117188 90.644531 C 208.660156 89.09375 210.207031 87.546875 211.753906 86 C 212.945312 84.808594 214.140625 83.613281 215.332031 82.417969 C 215.898438 81.847656 216.46875 81.277344 217.039062 80.707031 C 217.839844 79.90625 218.636719 79.105469 219.4375 78.300781 L 220.140625 77.597656 C 221.570312 76.15625 222.925781 74.664062 224.25 73.117188 C 224.902344 72.378906 225.582031 71.6875 226.285156 71 C 228.359375 68.957031 230.238281 66.753906 232.027344 64.460938 L 231.074219 64.34375 C 229.183594 64.078125 227.585938 63.820312 225.863281 62.976562 C 224.738281 61.9375 224.222656 61.15625 223.710938 59.710938 C 223.535156 58.371094 223.554688 57.371094 224.011719 56.097656 C 224.582031 54.863281 225.113281 53.9375 226.113281 53 C 230.34375 50.679688 237.457031 51.722656 242.242188 51.671875 M 191.265625 129.667969 L 192.542969 129.664062 C 193.433594 129.664062 194.320312 129.664062 195.210938 129.671875 C 196.570312 129.675781 197.929688 129.671875 199.289062 129.664062 C 200.152344 129.664062 201.019531 129.664062 201.886719 129.667969 L 203.113281 129.660156 C 204.828125 129.675781 206.085938 129.75 207.699219 130.378906 C 208.691406 131.035156 209.238281 131.578125 209.84375 132.597656 C 210.269531 133.867188 210.292969 134.777344 210.300781 136.109375 L 210.308594 137.578125 L 210.3125 139.191406 L 210.320312 140.890625 C 210.328125 142.75 210.332031 144.609375 210.335938 146.472656 L 210.339844 148.390625 C 210.347656 151.402344 210.355469 154.410156 210.355469 157.417969 C 210.359375 160.890625 210.371094 164.363281 210.386719 167.835938 C 210.398438 170.519531 210.40625 173.203125 210.40625 175.886719 C 210.40625 177.492188 210.410156 179.09375 210.421875 180.695312 C 210.429688 182.203125 210.433594 183.714844 210.429688 185.222656 C 210.429688 185.773438 210.429688 186.328125 210.4375 186.878906 C 210.472656 191 210.472656 191 209.925781 192.46875 C 209.394531 193.324219 208.78125 193.914062 207.957031 194.484375 C 205.722656 195.25 203.640625 195.359375 201.289062 195.347656 L 200.097656 195.351562 C 199.269531 195.351562 198.441406 195.347656 197.617188 195.34375 C 196.355469 195.335938 195.09375 195.34375 193.832031 195.351562 C 193.023438 195.351562 192.21875 195.347656 191.410156 195.347656 L 190.277344 195.351562 C 188.046875 195.328125 186.4375 195.125 184.492188 194 C 183.636719 193.117188 183.636719 193.117188 182.90625 192.019531 C 182.707031 190.867188 182.707031 190.867188 182.707031 189.570312 L 182.691406 188.078125 L 182.703125 186.449219 C 182.699219 185.875 182.699219 185.300781 182.695312 184.726562 C 182.6875 183.171875 182.691406 181.613281 182.695312 180.058594 C 182.699219 178.425781 182.695312 176.796875 182.691406 175.167969 C 182.691406 172.429688 182.691406 169.691406 182.703125 166.953125 C 182.710938 163.789062 182.707031 160.625 182.699219 157.460938 C 182.691406 154.742188 182.691406 152.023438 182.695312 149.308594 C 182.695312 147.683594 182.695312 146.0625 182.691406 144.4375 C 182.6875 142.914062 182.691406 141.386719 182.699219 139.863281 C 182.703125 139.300781 182.699219 138.742188 182.699219 138.183594 C 182.671875 133.992188 182.671875 133.992188 183.238281 132.542969 C 183.859375 131.566406 184.566406 130.960938 185.503906 130.28125 C 187.4375 129.636719 189.238281 129.65625 191.265625 129.667969 M 149.691406 149.882812 L 150.855469 149.882812 C 151.667969 149.886719 152.480469 149.890625 153.292969 149.894531 C 154.527344 149.90625 155.761719 149.902344 157 149.902344 C 157.789062 149.902344 158.582031 149.90625 159.371094 149.910156 L 160.480469 149.90625 C 162.671875 149.933594 164.574219 150.148438 166.667969 150.820312 C 167.695312 151.695312 168.441406 152.386719 169.042969 153.59375 C 169.089844 154.792969 169.109375 155.980469 169.113281 157.179688 L 169.121094 158.304688 C 169.128906 159.539062 169.132812 160.773438 169.136719 162.007812 L 169.140625 163.28125 C 169.148438 165.507812 169.15625 167.734375 169.160156 169.960938 C 169.164062 172.261719 169.179688 174.566406 169.195312 176.867188 C 169.203125 178.636719 169.207031 180.402344 169.207031 182.171875 C 169.210938 183.019531 169.214844 183.867188 169.222656 184.71875 C 169.230469 185.90625 169.230469 187.09375 169.230469 188.28125 L 169.246094 189.34375 C 169.238281 190.261719 169.203125 191.113281 169.042969 192.019531 C 168.351562 193.179688 167.839844 193.785156 166.671875 194.449219 C 164.304688 195.191406 162.117188 195.363281 159.644531 195.347656 L 158.449219 195.351562 C 157.621094 195.351562 156.796875 195.347656 155.96875 195.34375 C 154.707031 195.335938 153.445312 195.34375 152.183594 195.351562 C 151.375 195.351562 150.570312 195.347656 149.765625 195.347656 L 148.625 195.351562 C 146.980469 195.335938 145.816406 195.246094 144.273438 194.632812 C 143.261719 193.976562 142.71875 193.445312 142.105469 192.414062 C 141.585938 190.847656 141.644531 189.351562 141.640625 187.71875 L 141.632812 186.628906 C 141.625 185.441406 141.617188 184.25 141.617188 183.0625 L 141.609375 181.832031 C 141.601562 179.679688 141.597656 177.53125 141.59375 175.378906 C 141.589844 173.160156 141.574219 170.941406 141.558594 168.722656 C 141.546875 167.011719 141.546875 165.304688 141.542969 163.597656 C 141.542969 162.777344 141.539062 161.960938 141.53125 161.144531 C 141.523438 159.996094 141.519531 158.851562 141.523438 157.703125 L 141.507812 156.683594 C 141.523438 155.0625 141.664062 153.855469 142.449219 152.417969 C 143.292969 151.21875 143.292969 151.21875 144.332031 150.457031 C 146.144531 149.875 147.796875 149.867188 149.691406 149.886719 "/>
  <path fill="#E3243B" fill-opacity="1" fill-rule="nonzero" d="M163.5,37.92C165.12,38.42,166.05,38.89,167.23,40.1C167.96,41.73,168.04,42.98,168.07,44.74C167.78,46.23,167.23,47.05,166.27,48.22C165.12,48.95,165.12,48.95,163.79,49.56L162.3,50.27L161.52,50.63C153.51,54.34,146.31,58.86,139.81,64.85C139.05,65.54,138.27,66.21,137.48,66.86C135.95,68.18,134.67,69.64,133.39,71.2L132.87,71.82C123.97,82.55,117.25,95.17,114.68,108.98L114.44,110.27C114.29,111.11,114.14,111.94,114.02,112.77C113.52,115.55,113.52,115.55,112.55,116.75C111.4,117.78,110.55,118.3,109.05,118.76C107.32,118.73,105.98,118.41,104.47,117.55C103.62,116.64,103.04,115.88,102.49,114.77C102.24,111.49,102.67,108.45,103.43,105.27L103.75,103.93C107.69,88.04,115.23,73.26,126.58,61.41C127,60.97,127.42,60.54,127.84,60.11L128.58,59.34C132.07,55.71,135.62,52.34,139.73,49.41L140.52,48.84C157.35,36.94,157.35,36.94,163.5,37.92"/>
</svg>
